<?xml version="1.0" encoding="utf-8"?>
<!-- Generator: Adobe Illustrator 26.0.3, SVG Export Plug-In . SVG Version: 6.00 Build 0)  -->
<svg version="1.1" id="Слой_1" xmlns="http://www.w3.org/2000/svg" xmlns:xlink="http://www.w3.org/1999/xlink" x="0px" y="0px"
	 viewBox="0 0 512 512" style="enable-background:new 0 0 512 512;" xml:space="preserve">
<style type="text/css">
	.st0{fill:#FFFFFF;}
</style>
<path class="st0" d="M225.3,144h61.4c10.3,0,19.5,6.6,22.8,16.4l5.2,15.6H352c17.6,0,32,14.4,32,32v128c0,17.6-14.4,32-32,32H160
	c-17.7,0-32-14.4-32-32V208c0-17.6,14.3-32,32-32h37.4l5.2-15.6C205.8,150.6,214.9,144,225.3,144L225.3,144z M256,320
	c26.5,0,48-21.5,48-48c0-26.9-21.5-48-48-48c-26.9,0-48,21.1-48,48C208,298.5,229.1,320,256,320z"/>
</svg>
