<?xml version="1.0" encoding="utf-8"?>
<!-- Generator: Adobe Illustrator 26.0.3, SVG Export Plug-In . SVG Version: 6.00 Build 0)  -->
<svg version="1.1" id="Слой_1" xmlns="http://www.w3.org/2000/svg" xmlns:xlink="http://www.w3.org/1999/xlink" x="0px" y="0px"
	 viewBox="0 0 512 512" style="enable-background:new 0 0 512 512;" xml:space="preserve">
<style type="text/css">
	.st0{fill:#FFFFFF;}
</style>
<path class="st0" d="M510.93,255.06a28.71,28.71,0,0,1-28.44,28.53H454l.62,142.32a63.12,63.12,0,0,1-.44,7.2v14.4a35.55,35.55,0,0,1-35.56,35.56H404.44c-1,0-2-.81-2.93-.09-1.25-.72-2.49.09-3.74.09H347.55A35.55,35.55,0,0,1,312,447.51V369.28a28.41,28.41,0,0,0-28.44-28.44h-56.9a28.41,28.41,0,0,0-28.44,28.44v78.23a35.55,35.55,0,0,1-35.56,35.56H113c-1.33,0-2.67-.09-4-.18-1.07.09-2.13.18-3.2.18H91.54A35.55,35.55,0,0,1,56,447.51V348a23,23,0,0,1,.09-2.49V283.59H27.53A28.15,28.15,0,0,1-.91,255.06,28.91,28.91,0,0,1,8,233.72L235.9,35.05c6.22-6.23,13.33-7.12,19.56-7.12s13.33,1.78,18.75,6.23L501.15,233.72c7.12,6.22,10.76,13.34,9.78,21.34Z" transform="translate(0.91 -27.93)"/>
</svg>