<?xml version="1.0" encoding="utf-8"?>
<!-- Generator: Adobe Illustrator 26.0.3, SVG Export Plug-In . SVG Version: 6.00 Build 0)  -->
<svg version="1.1" id="Слой_1" xmlns="http://www.w3.org/2000/svg" xmlns:xlink="http://www.w3.org/1999/xlink" x="0px" y="0px"
	 viewBox="0 0 512 512" style="enable-background:new 0 0 512 512;" xml:space="preserve">
<style type="text/css">
	.st0{fill:#FF5722;}
	.st1{fill:#FFFFFF;}
</style>
<circle class="st0" cx="256" cy="256" r="256"/>
<path class="st1" d="M175,208.1l47.1,47L175,303c-9.3,9.4-9.3,24.6,0,33.1c9.4,10.2,24.6,10.2,33.1,0l47-46.2l47.9,46.2
	c9.4,10.2,24.6,10.2,33.1,0c10.2-8.5,10.2-23.7,0-33.1l-46.2-47.9l46.2-47c10.2-8.5,10.2-23.7,0-33.1c-8.5-9.3-23.7-9.3-33.1,0
	l-47.9,47.1l-47-47.1c-8.5-9.3-23.7-9.3-33.1,0C165.7,184.4,165.7,199.6,175,208.1L175,208.1z"/>
</svg>
